# xmcd
#
# Track frame offsets:
#	150
#	15243
#	31473
#	46190
#	57523
#	76890
#	92470
#	104300
#	113873
#	125318
#
# Disc length: 1850 seconds
#
# Revision: 3
# Processed by: cddbd v1.5.1PL2 Copyright (c) Steve Scherf et al.
# Submitted via: dBpowerAMP V4.0
#
DISCID=6e07380a
DTITLE=George Strait - Lead On
DYEAR=1994
DGENRE=Country
TTITLE0=You Can't Make A Heart Love Somebody
TTITLE1=Adalida
TTITLE2=I Met A Friend Of Yours Today
TTITLE3=Nobody Has To Get Hurt
TTITLE4=Down Louisiana Way
TTITLE5=Lead On
TTITLE6=What Am I Waiting For
TTITLE7=The Big One
TTITLE8=I'll Always Be Loving You
TTITLE9=No One But You
EXTD=
EXTT0=
EXTT1=
EXTT2=
EXTT3=
EXTT4=
EXTT5=
EXTT6=
EXTT7=
EXTT8=
EXTT9=
PLAYORDER=
